<svg xmlns="http://www.w3.org/2000/svg" xml:space="preserve" viewBox="0 0 512 512"><path d="M199.11 0H28.44C12.69 0 0 12.72 0 28.44v170.67c0 15.72 12.69 28.44 28.44 28.44h170.67c15.72 0 28.44-12.69 28.44-28.44V28.44C227.56 12.72 214.83 0 199.11 0m-28.44 170.67H56.89V56.89h113.78zM483.56 0H312.89c-15.75 0-28.44 12.72-28.44 28.44v170.67c0 15.72 12.69 28.44 28.44 28.44h170.67c15.72 0 28.44-12.69 28.44-28.44V28.44C512 12.72 499.28 0 483.56 0m-28.45 170.67H341.33V56.89h113.78zm-256 113.77H28.44C12.69 284.44 0 297.17 0 312.89v170.67C0 499.28 12.69 512 28.44 512h170.67c15.72 0 28.44-12.72 28.44-28.44V312.89c.01-15.72-12.72-28.45-28.44-28.45m-28.44 170.67H56.89V341.33h113.78zm227.55-170.67c-62.75 0-113.78 51.03-113.78 113.78S335.47 512 398.22 512C460.94 512 512 460.97 512 398.22s-51.06-113.78-113.78-113.78m0 170.67c-31.39 0-56.89-25.5-56.89-56.89 0-31.36 25.5-56.89 56.89-56.89 31.36 0 56.89 25.53 56.89 56.89 0 31.39-25.53 56.89-56.89 56.89"/></svg>