<svg width="39" height="41" viewBox="0 0 39 41" fill="none" xmlns="http://www.w3.org/2000/svg">
<path d="M21.5 5.5L1.5 5.5" stroke="#141B34" stroke-width="3" stroke-linecap="round" stroke-linejoin="round"/>
<path d="M17.5 35.5L1.5 35.5" stroke="#141B34" stroke-width="3" stroke-linecap="round" stroke-linejoin="round"/>
<path d="M37.5 35.5L29.5 35.5" stroke="#141B34" stroke-width="3" stroke-linecap="round" stroke-linejoin="round"/>
<path d="M37.5 20.5L17.5 20.5" stroke="#141B34" stroke-width="3" stroke-linecap="round" stroke-linejoin="round"/>
<path d="M37.5 5.5L33.5 5.5" stroke="#141B34" stroke-width="3" stroke-linecap="round" stroke-linejoin="round"/>
<path d="M5.5 20.5L1.5 20.5" stroke="#141B34" stroke-width="3" stroke-linecap="round" stroke-linejoin="round"/>
<path d="M24.5 1.5C25.4319 1.5 25.8978 1.5 26.2654 1.65224C26.7554 1.85523 27.1448 2.24458 27.3478 2.73463C27.5 3.10218 27.5 3.56812 27.5 4.5L27.5 6.5C27.5 7.43188 27.5 7.89782 27.3478 8.26537C27.1448 8.75542 26.7554 9.14477 26.2654 9.34776C25.8978 9.5 25.4319 9.5 24.5 9.5C23.5681 9.5 23.1022 9.5 22.7346 9.34776C22.2446 9.14477 21.8552 8.75542 21.6522 8.26537C21.5 7.89782 21.5 7.43188 21.5 6.5L21.5 4.5C21.5 3.56812 21.5 3.10217 21.6522 2.73463C21.8552 2.24458 22.2446 1.85523 22.7346 1.65224C23.1022 1.5 23.5681 1.5 24.5 1.5Z" stroke="#141B34" stroke-width="3" stroke-linecap="round" stroke-linejoin="round"/>
<path d="M20.5 31.5C21.4319 31.5 21.8978 31.5 22.2654 31.6522C22.7554 31.8552 23.1448 32.2446 23.3478 32.7346C23.5 33.1022 23.5 33.5681 23.5 34.5L23.5 36.5C23.5 37.4319 23.5 37.8978 23.3478 38.2654C23.1448 38.7554 22.7554 39.1448 22.2654 39.3478C21.8978 39.5 21.4319 39.5 20.5 39.5C19.5681 39.5 19.1022 39.5 18.7346 39.3478C18.2446 39.1448 17.8552 38.7554 17.6522 38.2654C17.5 37.8978 17.5 37.4319 17.5 36.5L17.5 34.5C17.5 33.5681 17.5 33.1022 17.6522 32.7346C17.8552 32.2446 18.2446 31.8552 18.7346 31.6522C19.1022 31.5 19.5681 31.5 20.5 31.5Z" stroke="#141B34" stroke-width="3" stroke-linecap="round" stroke-linejoin="round"/>
<path d="M14.5 16.5C15.4319 16.5 15.8978 16.5 16.2654 16.6522C16.7554 16.8552 17.1448 17.2446 17.3478 17.7346C17.5 18.1022 17.5 18.5681 17.5 19.5L17.5 21.5C17.5 22.4319 17.5 22.8978 17.3478 23.2654C17.1448 23.7554 16.7554 24.1448 16.2654 24.3478C15.8978 24.5 15.4319 24.5 14.5 24.5C13.5681 24.5 13.1022 24.5 12.7346 24.3478C12.2446 24.1448 11.8552 23.7554 11.6522 23.2654C11.5 22.8978 11.5 22.4319 11.5 21.5L11.5 19.5C11.5 18.5681 11.5 18.1022 11.6522 17.7346C11.8552 17.2446 12.2446 16.8552 12.7346 16.6522C13.1022 16.5 13.5681 16.5 14.5 16.5Z" stroke="#141B34" stroke-width="3" stroke-linecap="round" stroke-linejoin="round"/>
</svg>
